#!OML:ASF F:\VICON\USERDATA\INSTALL\rory3\rory3.ASF
:FULLY-SPECIFIED
:DEGREES
347
root 1.1458 17.1536 -2.47139 8.77655 -0.970587 4.45145
lowerback -7.25284 -1.9303 -4.74836
upperback -3.53696 -2.26339 -0.0962224
thorax 0.58253 -1.08419 2.38836
lowerneck -15.7585 -2.3685 -6.98652
upperneck 26.2048 -2.81814 4.85625
head 11.2801 -1.38464 2.56434
rclavicle -1.37658e-014 -3.37934e-015
rhumerus -41.6884 1.95257 -88.1878
rradius 33.2286
rwrist 2.46287
rhand -23.7361 -51.4266
rfingers 7.12502
rthumb 2.73225 -81.3888
lclavicle -1.37658e-014 -3.37934e-015
lhumerus -23.0498 -16.778 92.2225
lradius 40.0856
lwrist 9.78867
lhand -33.3944 -28.1266
lfingers 7.12502
lthumb -6.59495 1.75071
rfemur -42.2208 8.38622 11.4478
rtibia 22.3171
rfoot -4.39738 -14.8672
rtoes -9.38128
lfemur 0.0619759 -5.88349 -30.2607
ltibia 19.7519
lfoot -21.0624 2.64386
ltoes -2.34941
348
root 1.11552 17.1364 -2.31205 8.79012 -0.854146 4.08913
lowerback -7.54652 -1.93111 -4.56515
upperback -3.42501 -2.25807 -0.0064404
thorax 0.857787 -1.09027 2.36759
lowerneck -15.9814 -2.36665 -6.87319
upperneck 26.2995 -2.82955 4.83917
head 11.359 -1.3784 2.53815
rclavicle -1.78844e-014 -5.96354e-016
rhumerus -41.4563 1.65052 -88.0646
rradius 32.6965
rwrist 2.42355
rhand -23.9069 -50.4731
rfingers 7.12502
rthumb 2.56729 -80.4374
lclavicle -1.78844e-014 -5.96354e-016
lhumerus -23.1362 -16.8389 92.367
lradius 39.9977
lwrist 9.68229
lhand -33.3198 -27.5582
lfingers 7.12502
lthumb -6.52294 2.32133
rfemur -42.0782 8.5839 11.9699
rtibia 22.8837
rfoot -4.65813 -14.9055
rtoes -9.14971
lfemur 0.82455 -5.82103 -29.7576
ltibia 19.5944
lfoot -20.9135 2.38149
ltoes -2.89602
349
root 1.09107 17.1202 -2.14367 8.81667 -0.76234 3.99639
lowerback -7.95297 -1.97244 -4.57041
upperback -3.37416 -2.28969 0.0410127
thorax 1.13938 -1.11229 2.40296
lowerneck -15.8807 -2.32513 -6.97565
upperneck 26.3053 -2.76247 4.89036
head 11.3388 -1.35323 2.58481
rclavicle 1.35484e-014 -1.78906e-015
rhumerus -41.4211 1.47757 -87.9024
rradius 32.2314
rwrist 2.54135
rhand -24.2275 -49.3341
rfingers 7.12502
rthumb 2.25766 -79.3019
lclavicle 1.35484e-014 -1.78906e-015
lhumerus -23.4401 -16.7243 92.6002
lradius 40.0532
lwrist 9.48919
lhand -33.2925 -26.5637
lfingers 7.12502
lthumb -6.49661 3.31664
rfemur -41.8649 8.59093 12.276
rtibia 23.4522
rfoot -4.7884 -14.7231
rtoes -9.76974
lfemur 1.49817 -5.80181 -29.5753
ltibia 19.6256
lfoot -20.8888 2.32968
ltoes -4.39452
350
root 1.06222 17.1074 -1.97992 8.84146 -0.729313 4.0281
lowerback -8.00918 -1.97757 -4.80659
upperback -3.54102 -2.28139 0.102076
thorax 1.00722 -1.10031 2.60067
lowerneck -15.7003 -2.27419 -6.91773
upperneck 26.456 -2.66446 4.68497
head 11.3497 -1.33204 2.51602
rclavicle 3.43152e-014 1.43125e-014
rhumerus -41.8635 1.37137 -87.7011
rradius 32.057
rwrist 2.81383
rhand -23.9791 -49.3039
rfingers 7.12502
rthumb 2.49757 -79.269
lclavicle 3.43152e-014 1.43125e-014
lhumerus -24.1774 -16.7233 93.0795
lradius 39.2069
lwrist 7.84271
lhand -34.3004 -30.2486
lfingers 7.12502
lthumb -7.46958 -0.400505
rfemur -41.6435 8.68969 12.4602
rtibia 24.0303
rfoot -4.89203 -14.5937
rtoes -10.4306
lfemur 1.98052 -5.66669 -29.4965
ltibia 19.7921
lfoot -20.7323 2.27326
ltoes -7.26602
351
root 1.0316 17.0976 -1.81689 8.92576 -0.538578 3.8898
lowerback -8.08814 -2.00691 -4.84001
upperback -3.75171 -2.31991 0.169647
thorax 0.839202 -1.11132 2.68729
lowerneck -15.4495 -2.28082 -6.7873
upperneck 26.5925 -2.68481 4.51593
head 11.3487 -1.35338 2.43101
rclavicle 3.63776e-014 1.66979e-014
rhumerus -42.2422 1.33705 -87.6977
rradius 31.9114
rwrist 2.27383
rhand -23.497 -50.3681
rfingers 7.12502
rthumb 2.96316 -80.3272
lclavicle 3.63776e-014 1.66979e-014
lhumerus -24.9228 -16.5929 93.4218
lradius 38.8806
lwrist 7.15601
lhand -34.6123 -31.9004
lfingers 7.12502
lthumb -7.77054 -2.06321
rfemur -41.3517 8.57765 12.9319
rtibia 24.532
rfoot -5.3579 -14.3799
rtoes -9.225
lfemur 2.24536 -5.68694 -29.1561
ltibia 20.1632
lfoot -20.585 1.69024
ltoes -7.77079
352
root 1.00295 17.0974 -1.645 9.08029 -0.345416 3.52482
lowerback -8.58432 -2.06145 -4.55043
upperback -3.97136 -2.39338 0.260155
thorax 0.884169 -1.14741 2.60004
lowerneck -14.6137 -2.30203 -7.11258
upperneck 26.5211 -2.80684 4.937
head 11.1735 -1.39998 2.62607
rclavicle -7.20594e-016 -3.97569e-015
rhumerus -42.818 1.46198 -87.8403
rradius 32.0893
rwrist 1.62973
rhand -23.015 -51.435
rfingers 7.12502
rthumb 3.42862 -81.3872
lclavicle -7.20594e-016 -3.97569e-015
lhumerus -25.8164 -16.3332 93.6356
lradius 38.9772
lwrist 7.11809
lhand -34.6153 -32.5421
lfingers 7.12502
lthumb -7.77347 -2.70502
rfemur -40.9962 8.45096 13.6726
rtibia 24.9387
rfoot -5.70796 -14.1602
rtoes -8.01853
lfemur 2.37193 -5.65186 -28.568
ltibia 20.6849
lfoot -20.4582 0.968343
ltoes -6.51067
353
root 0.972262 17.1 -1.47084 9.22902 -0.326656 3.09441
lowerback -8.89614 -2.00265 -4.19736
upperback -3.94035 -2.32801 0.346714
thorax 1.07408 -1.12195 2.48769
lowerneck -15.2597 -2.43528 -7.31037
upperneck 26.9229 -2.99578 5.23751
head 11.4781 -1.4639 2.75077
rclavicle -3.46507e-014 -1.43125e-014
rhumerus -42.8978 1.36996 -87.83
rradius 32.2955
rwrist 1.60719
rhand -22.4582 -52.0741
rfingers 7.12502
rthumb 3.96629 -82.0169
lclavicle -3.46507e-014 -1.43125e-014
lhumerus -25.9927 -16.2843 93.6616
lradius 39.1979
lwrist 7.63229
lhand -34.0265 -31.8638
lfingers 7.12502
lthumb -7.20516 -2.00645
rfemur -40.7715 8.54633 14.4595
rtibia 25.5315
rfoot -5.40905 -13.9137
rtoes -8.91501
lfemur 2.74957 -5.41464 -27.9278
ltibia 20.7423
lfoot -20.1286 0.31172
ltoes -7.8892
354
root 0.934799 17.0979 -1.30167 9.36631 -0.37742 2.64256
lowerback -9.10703 -1.93514 -3.98059
upperback -4.05788 -2.2513 0.499529
thorax 1.06096 -1.08259 2.52801
lowerneck -15.6852 -2.35334 -7.15246
upperneck 27.4692 -2.86501 5.08739
head 11.7603 -1.40643 2.69673
rclavicle 2.65874e-015 1.17283e-014
rhumerus -43.151 1.26136 -87.7413
rradius 32.1191
rwrist 1.28187
rhand -22.8335 -51.4822
rfingers 7.12502
rthumb 3.60393 -81.4315
lclavicle 2.65874e-015 1.17283e-014
lhumerus -26.3963 -16.1538 93.8163
lradius 39.3754
lwrist 8.48401
lhand -32.8362 -29.769
lfingers 7.12502
lthumb -6.05608 0.124408
rfemur -40.579 8.82972 15.2081
rtibia 25.9373
rfoot -4.3785 -13.6287
rtoes -10.1222
lfemur 3.14741 -5.17877 -27.2358
ltibia 20.8054
lfoot -19.6766 -0.215297
ltoes -12.2328
355
root 0.91402 17.1098 -1.08203 9.25327 -0.183768 3.01698
lowerback -9.78171 -2.02158 -4.34552
upperback -4.01676 -2.29804 0.367822
thorax 1.4843 -1.11194 2.57022
lowerneck -15.2892 -2.50915 -6.75518
upperneck 27.413 -3.01832 4.37074
head 11.6526 -1.52893 2.33667
rclavicle -5.10628e-015 -9.74045e-015
rhumerus -43.3731 1.11296 -87.6219
rradius 31.699
rwrist 1.06121
rhand -23.7225 -50.2819
rfingers 7.12502
rthumb 2.74535 -80.244
lclavicle -5.10628e-015 -9.74045e-015
lhumerus -27.0406 -15.9919 94.0484
lradius 39.3031
lwrist 8.87625
lhand -32.3477 -28.2943
lfingers 7.12502
lthumb -5.58445 1.6121
rfemur -40.0201 8.3187 15.1679
rtibia 26.4087
rfoot -3.69973 -13.0289
rtoes -9.95817
lfemur 4.17261 -5.29369 -27.5643
ltibia 20.6524
lfoot -19.1031 -0.591379
ltoes -14.7189
